<svg width="20" height="20" viewBox="0 0 20 20" fill="none" xmlns="http://www.w3.org/2000/svg">
<path d="M16.4286 17.7143C16.4286 18.4244 17.0042 19 17.7143 19C18.4244 19 19 18.4244 19 17.7143C19 17.0042 18.4244 16.4286 17.7143 16.4286C17.0042 16.4286 16.4286 17.0042 16.4286 17.7143Z" fill="#E0A449"/>
<path d="M8.71429 17.7143C8.71429 18.4244 9.28992 19 10 19C10.7101 19 11.2857 18.4244 11.2857 17.7143C11.2857 17.0042 10.7101 16.4286 10 16.4286C9.28992 16.4286 8.71429 17.0042 8.71429 17.7143Z" fill="#E0A449"/>
<path d="M1 17.7143C1 18.4244 1.57563 19 2.28571 19C2.99579 19 3.57143 18.4244 3.57143 17.7143C3.57143 17.0042 2.99579 16.4286 2.28571 16.4286C1.57563 16.4286 1 17.0042 1 17.7143Z" fill="#E0A449"/>
<path d="M16.4286 10C16.4286 10.7101 17.0042 11.2857 17.7143 11.2857C18.4244 11.2857 19 10.7101 19 10C19 9.28992 18.4244 8.71429 17.7143 8.71429C17.0042 8.71429 16.4286 9.28992 16.4286 10Z" fill="#E0A449"/>
<path d="M8.71429 10C8.71429 10.7101 9.28992 11.2857 10 11.2857C10.7101 11.2857 11.2857 10.7101 11.2857 10C11.2857 9.28992 10.7101 8.71429 10 8.71429C9.28992 8.71429 8.71429 9.28992 8.71429 10Z" fill="#E0A449"/>
<path d="M1 10C1 10.7101 1.57563 11.2857 2.28571 11.2857C2.99579 11.2857 3.57143 10.7101 3.57143 10C3.57143 9.28992 2.99579 8.71429 2.28571 8.71429C1.57563 8.71429 1 9.28992 1 10Z" fill="#E0A449"/>
<path d="M16.4286 2.28571C16.4286 2.99579 17.0042 3.57143 17.7143 3.57143C18.4244 3.57143 19 2.99579 19 2.28571C19 1.57563 18.4244 1 17.7143 1C17.0042 1 16.4286 1.57563 16.4286 2.28571Z" fill="#E0A449"/>
<path d="M8.71429 2.28571C8.71429 2.99579 9.28992 3.57143 10 3.57143C10.7101 3.57143 11.2857 2.99579 11.2857 2.28571C11.2857 1.57563 10.7101 1 10 1C9.28992 1 8.71429 1.57563 8.71429 2.28571Z" fill="#E0A449"/>
<path d="M1 2.28571C1 2.99579 1.57563 3.57143 2.28571 3.57143C2.99579 3.57143 3.57143 2.99579 3.57143 2.28571C3.57143 1.57563 2.99579 1 2.28571 1C1.57563 1 1 1.57563 1 2.28571Z" fill="#E0A449"/>
<path d="M16.4286 17.7143C16.4286 18.4244 17.0042 19 17.7143 19C18.4244 19 19 18.4244 19 17.7143C19 17.0042 18.4244 16.4286 17.7143 16.4286C17.0042 16.4286 16.4286 17.0042 16.4286 17.7143Z" stroke="#E0A449" stroke-width="2" stroke-linecap="round" stroke-linejoin="round"/>
<path d="M8.71429 17.7143C8.71429 18.4244 9.28992 19 10 19C10.7101 19 11.2857 18.4244 11.2857 17.7143C11.2857 17.0042 10.7101 16.4286 10 16.4286C9.28992 16.4286 8.71429 17.0042 8.71429 17.7143Z" stroke="#E0A449" stroke-width="2" stroke-linecap="round" stroke-linejoin="round"/>
<path d="M1 17.7143C1 18.4244 1.57563 19 2.28571 19C2.99579 19 3.57143 18.4244 3.57143 17.7143C3.57143 17.0042 2.99579 16.4286 2.28571 16.4286C1.57563 16.4286 1 17.0042 1 17.7143Z" stroke="#E0A449" stroke-width="2" stroke-linecap="round" stroke-linejoin="round"/>
<path d="M16.4286 10C16.4286 10.7101 17.0042 11.2857 17.7143 11.2857C18.4244 11.2857 19 10.7101 19 10C19 9.28992 18.4244 8.71429 17.7143 8.71429C17.0042 8.71429 16.4286 9.28992 16.4286 10Z" stroke="#E0A449" stroke-width="2" stroke-linecap="round" stroke-linejoin="round"/>
<path d="M8.71429 10C8.71429 10.7101 9.28992 11.2857 10 11.2857C10.7101 11.2857 11.2857 10.7101 11.2857 10C11.2857 9.28992 10.7101 8.71429 10 8.71429C9.28992 8.71429 8.71429 9.28992 8.71429 10Z" stroke="#E0A449" stroke-width="2" stroke-linecap="round" stroke-linejoin="round"/>
<path d="M1 10C1 10.7101 1.57563 11.2857 2.28571 11.2857C2.99579 11.2857 3.57143 10.7101 3.57143 10C3.57143 9.28992 2.99579 8.71429 2.28571 8.71429C1.57563 8.71429 1 9.28992 1 10Z" stroke="#E0A449" stroke-width="2" stroke-linecap="round" stroke-linejoin="round"/>
<path d="M16.4286 2.28571C16.4286 2.99579 17.0042 3.57143 17.7143 3.57143C18.4244 3.57143 19 2.99579 19 2.28571C19 1.57563 18.4244 1 17.7143 1C17.0042 1 16.4286 1.57563 16.4286 2.28571Z" stroke="#E0A449" stroke-width="2" stroke-linecap="round" stroke-linejoin="round"/>
<path d="M8.71429 2.28571C8.71429 2.99579 9.28992 3.57143 10 3.57143C10.7101 3.57143 11.2857 2.99579 11.2857 2.28571C11.2857 1.57563 10.7101 1 10 1C9.28992 1 8.71429 1.57563 8.71429 2.28571Z" stroke="#E0A449" stroke-width="2" stroke-linecap="round" stroke-linejoin="round"/>
<path d="M1 2.28571C1 2.99579 1.57563 3.57143 2.28571 3.57143C2.99579 3.57143 3.57143 2.99579 3.57143 2.28571C3.57143 1.57563 2.99579 1 2.28571 1C1.57563 1 1 1.57563 1 2.28571Z" stroke="#E0A449" stroke-width="2" stroke-linecap="round" stroke-linejoin="round"/>
</svg>
