<svg width="28" height="28" viewBox="0 0 28 28" fill="none" xmlns="http://www.w3.org/2000/svg">
<g filter="url(#filter0_d_1_416)">
<path d="M5.00005 15.6251C5 15.5524 5 15.4775 5 15.4002V4.60022C5 3.3401 5 2.70957 5.21799 2.22827C5.40973 1.80491 5.71547 1.46095 6.0918 1.24524C6.51962 1 7.08009 1 8.2002 1H19.8002C20.9203 1 21.4801 1 21.9079 1.24524C22.2842 1.46095 22.5905 1.80491 22.7822 2.22827C23 2.7091 23 3.33887 23 4.59652V15.4035C23 15.9491 23 16.3764 22.9822 16.7246M5.00005 15.6251C5.00082 16.737 5.01337 17.319 5.21799 17.7708C5.40973 18.1942 5.71547 18.5393 6.0918 18.755C6.5192 19 7.07899 19 8.19691 19H19.8036C20.9215 19 21.4805 19 21.9079 18.755C22.2842 18.5393 22.5905 18.1942 22.7822 17.7708C22.9055 17.4986 22.959 17.1789 22.9822 16.7246M5.00005 15.6251L9.76798 9.36719L9.76939 9.36545C10.1923 8.81042 10.4041 8.53244 10.6553 8.43225C10.8759 8.34424 11.1169 8.34629 11.3364 8.43774C11.5866 8.54196 11.7951 8.82311 12.2119 9.38586L14.8831 12.9919C15.269 13.5129 15.463 13.7748 15.6986 13.88C15.9065 13.9727 16.1357 13.9832 16.3501 13.912C16.5942 13.831 16.8091 13.5892 17.2388 13.1058L17.7358 12.5466C18.1733 12.0544 18.3921 11.8085 18.6397 11.7281C18.8571 11.6575 19.0896 11.6727 19.2988 11.7699C19.537 11.8806 19.7302 12.1514 20.1167 12.6949L22.9822 16.7246M22.9822 16.7246L23 16.7496M17 7.75C16.4477 7.75 16 7.24632 16 6.625C16 6.00368 16.4477 5.5 17 5.5C17.5523 5.5 18 6.00368 18 6.625C18 7.24632 17.5523 7.75 17 7.75Z" stroke="#E0A449" stroke-width="2" stroke-linecap="round" stroke-linejoin="round" shape-rendering="crispEdges"/>
</g>
<defs>
<filter id="filter0_d_1_416" x="0" y="-3.8147e-06" width="28" height="28" filterUnits="userSpaceOnUse" color-interpolation-filters="sRGB">
<feFlood flood-opacity="0" result="BackgroundImageFix"/>
<feColorMatrix in="SourceAlpha" type="matrix" values="0 0 0 0 0 0 0 0 0 0 0 0 0 0 0 0 0 0 127 0" result="hardAlpha"/>
<feOffset dy="4"/>
<feGaussianBlur stdDeviation="2"/>
<feComposite in2="hardAlpha" operator="out"/>
<feColorMatrix type="matrix" values="0 0 0 0 0 0 0 0 0 0 0 0 0 0 0 0 0 0 0.25 0"/>
<feBlend mode="normal" in2="BackgroundImageFix" result="effect1_dropShadow_1_416"/>
<feBlend mode="normal" in="SourceGraphic" in2="effect1_dropShadow_1_416" result="shape"/>
</filter>
</defs>
</svg>
