<svg width="26" height="18" viewBox="0 0 26 18" fill="none" xmlns="http://www.w3.org/2000/svg">
<path d="M26 9C26 9.37689 25.8356 9.73834 25.5431 10.0048C25.2505 10.2713 24.8537 10.4211 24.44 10.4211H1.56C1.14626 10.4211 0.74947 10.2713 0.456913 10.0048C0.164357 9.73834 0 9.37689 0 9C0 8.62311 0.164357 8.26166 0.456913 7.99516C0.74947 7.72866 1.14626 7.57895 1.56 7.57895H24.44C24.8537 7.57895 25.2505 7.72866 25.5431 7.99516C25.8356 8.26166 26 8.62311 26 9ZM1.56 2.84211H24.44C24.8537 2.84211 25.2505 2.69239 25.5431 2.42589C25.8356 2.15939 26 1.79794 26 1.42105C26 1.04417 25.8356 0.682716 25.5431 0.416217C25.2505 0.149717 24.8537 0 24.44 0H1.56C1.14626 0 0.74947 0.149717 0.456913 0.416217C0.164357 0.682716 0 1.04417 0 1.42105C0 1.79794 0.164357 2.15939 0.456913 2.42589C0.74947 2.69239 1.14626 2.84211 1.56 2.84211ZM24.44 15.1579H1.56C1.14626 15.1579 0.74947 15.3076 0.456913 15.5741C0.164357 15.8406 0 16.2021 0 16.5789C0 16.9558 0.164357 17.3173 0.456913 17.5838C0.74947 17.8503 1.14626 18 1.56 18H24.44C24.8537 18 25.2505 17.8503 25.5431 17.5838C25.8356 17.3173 26 16.9558 26 16.5789C26 16.2021 25.8356 15.8406 25.5431 15.5741C25.2505 15.3076 24.8537 15.1579 24.44 15.1579Z" fill="#E0A449"/>
</svg>
