<svg width="20" height="20" viewBox="0 0 20 20" fill="none" xmlns="http://www.w3.org/2000/svg">
<path d="M1.00005 15.6251C1 15.5524 1 15.4775 1 15.4002V4.60022C1 3.3401 1 2.70957 1.21799 2.22827C1.40973 1.80491 1.71547 1.46095 2.0918 1.24524C2.51962 1 3.08009 1 4.2002 1H15.8002C16.9203 1 17.4801 1 17.9079 1.24524C18.2842 1.46095 18.5905 1.80491 18.7822 2.22827C19 2.7091 19 3.33887 19 4.59652V15.4035C19 15.9491 19 16.3764 18.9822 16.7246M1.00005 15.6251C1.00082 16.737 1.01337 17.319 1.21799 17.7708C1.40973 18.1942 1.71547 18.5393 2.0918 18.755C2.5192 19 3.07899 19 4.19691 19H15.8036C16.9215 19 17.4805 19 17.9079 18.755C18.2842 18.5393 18.5905 18.1942 18.7822 17.7708C18.9055 17.4986 18.959 17.1789 18.9822 16.7246M1.00005 15.6251L5.76798 9.36719L5.76939 9.36545C6.19227 8.81042 6.40406 8.53244 6.65527 8.43225C6.87594 8.34424 7.11686 8.34629 7.33643 8.43774C7.58664 8.54196 7.79506 8.82311 8.21191 9.38586L10.8831 12.9919C11.269 13.5129 11.463 13.7748 11.6986 13.88C11.9065 13.9727 12.1357 13.9832 12.3501 13.912C12.5942 13.831 12.8091 13.5892 13.2388 13.1058L13.7358 12.5466C14.1733 12.0544 14.3921 11.8085 14.6397 11.7281C14.8571 11.6575 15.0896 11.6727 15.2988 11.7699C15.537 11.8806 15.7302 12.1514 16.1167 12.6949L18.9822 16.7246M18.9822 16.7246L19 16.7496M13 7.75C12.4477 7.75 12 7.24632 12 6.625C12 6.00368 12.4477 5.5 13 5.5C13.5523 5.5 14 6.00368 14 6.625C14 7.24632 13.5523 7.75 13 7.75Z" stroke="#FFFDFA" stroke-width="2" stroke-linecap="round" stroke-linejoin="round"/>
</svg>
