<svg width="185" height="46" viewBox="0 0 185 46" fill="none" xmlns="http://www.w3.org/2000/svg">
<path d="M15.4242 13.7738L14.5574 15.2385L11.447 20.4493L4.2066 8.2812H0V31.6598H4.53803V17.2383L10.1213 26.6461H12.7473L16.9029 19.6888L17.7697 18.2242L15.4242 13.7738Z" fill="white"/>
<path d="M60.1642 8.30988C67.685 8.30988 71.2543 13.2109 71.2543 19.9992C71.2543 26.7874 67.685 31.6885 60.1642 31.6885H52.2354V8.30988H60.1642ZM60.1642 12.7039H56.7734V27.2663H60.1642C64.3708 27.2663 66.6398 24.7876 66.6398 19.9992C66.6398 15.2108 64.3708 12.7039 60.1642 12.7039Z" fill="white"/>
<path d="M81.5582 8.30988C83.9802 8.30988 86.4022 8.95772 88.1613 10.0562V14.563C86.4532 13.2109 84.1587 12.5349 81.8896 12.5631C79.6716 12.5913 78.5753 13.2673 78.5753 14.6475C78.5753 18.5345 89.7165 17.098 89.7165 25.0693C89.7165 30.1111 86.0453 31.6885 81.7877 31.6885C78.9578 31.6885 76.3573 30.9562 74.2668 29.6605V25.0693C76.5868 26.7593 79.1362 27.4353 81.4817 27.4353C83.8272 27.4353 85.2804 26.9001 85.2804 25.2946C85.2804 21.0977 74.1393 22.6751 74.1393 14.7038C74.1138 10.3379 77.5556 8.30988 81.5582 8.30988Z" fill="white"/>
<path d="M108.021 8.30918V12.7032H97.6445V17.6888H107.103V22.0547H97.6445V27.2656H108.199V31.6596H93.1064V8.28101H108.021V8.30918Z" fill="white"/>
<path d="M111.872 31.6598V8.2812H116.129L125.97 23.5477C125.919 22.59 125.868 21.407 125.868 20.3367V8.2812H130.406V31.6598H126.149L116.308 16.3933C116.359 17.351 116.41 18.534 116.41 19.6043V31.6598H111.872Z" fill="white"/>
<path d="M38.8507 12.5913C38.8762 12.1688 38.7742 11.7181 38.5702 11.3238L36.9896 8.30988H35.3579L37.3465 12.1124C37.423 12.2533 37.4485 12.4223 37.423 12.5913H38.8507Z" fill="#2C3144"/>
<path d="M49.2298 21.0414L44.2329 30.6182C43.9014 31.266 43.2641 31.6885 42.5757 31.6885H32.5818C31.8935 31.6885 31.2561 31.2942 30.9247 30.6182L27.9418 24.9284L27.126 23.3792L25.9278 21.0695C25.5963 20.4217 25.5963 19.6049 25.9278 18.957L30.9247 9.38023C31.2561 8.73239 31.8935 8.30988 32.5818 8.30988H35.3862L37.3748 12.1124C37.4513 12.2533 37.4768 12.4223 37.4513 12.5913H33.7291L29.8539 19.9992L31.6131 23.3511L32.3269 24.7312L33.7291 27.4071H41.4539L45.3291 19.9992L41.4539 12.5913H38.8535C38.879 12.1688 38.777 11.7181 38.5731 11.3238L36.9924 8.30988H42.5757C43.2641 8.30988 43.9014 8.70422 44.2329 9.38023L49.2298 18.957C49.5867 19.5767 49.5867 20.3935 49.2298 21.0414Z" fill="white"/>
<path d="M38.5712 11.3231L36.9905 8.30927L33.2428 1.12668C32.8859 0.422505 32.1975 0 31.4582 0H20.8015C20.0621 0 19.3993 0.422505 19.0168 1.12668L13.714 11.3231C13.3571 12.0273 13.3571 12.8723 13.714 13.5765L14.5808 15.2383L16.9263 19.7169L18.3795 22.4773V19.3507L17.7931 18.2522L15.4476 13.7737L14.9377 12.816C14.8357 12.5907 14.8357 12.3372 14.9377 12.1118L20.2661 1.91536C20.3681 1.69002 20.5975 1.57735 20.827 1.57735H31.4837C31.7131 1.57735 31.9171 1.71819 32.0446 1.91536L35.3843 8.30927L37.3729 12.1118C37.4494 12.2526 37.4749 12.4216 37.4494 12.5907C37.4494 12.6752 37.4239 12.7315 37.3729 12.816L32.0446 23.0124C31.9426 23.1814 31.7896 23.3223 31.6111 23.3504L32.325 24.7306C32.7074 24.5335 33.0388 24.2236 33.2683 23.8011L38.5967 13.6047C38.7496 13.2948 38.8516 12.9568 38.8771 12.5907C38.8771 12.14 38.7751 11.7175 38.5712 11.3231ZM22.892 23.3504V24.8996H27.9399L27.1241 23.3504H22.892Z" fill="#F17900"/>
<path d="M22.8942 8.30988V31.6603H18.3562V17.267L17.7698 18.2528L15.4243 13.7743L18.6876 8.30988H22.8942Z" fill="white"/>
<path d="M128.456 39.264C127.896 39.264 127.384 39.184 126.92 39.024C126.472 38.864 126.136 38.544 125.912 38.064C125.688 37.568 125.64 36.824 125.768 35.832L126.92 27.792C127.032 26.928 127.272 26.272 127.64 25.824C128.024 25.36 128.504 25.048 129.08 24.888C129.672 24.712 130.328 24.624 131.048 24.624C131.768 24.624 132.392 24.712 132.92 24.888C133.448 25.064 133.84 25.376 134.096 25.824C134.352 26.272 134.416 26.928 134.288 27.792L134.024 29.664H132.224L132.488 27.744C132.568 27.184 132.544 26.768 132.416 26.496C132.304 26.208 132.112 26.024 131.84 25.944C131.584 25.848 131.272 25.8 130.904 25.8C130.536 25.8 130.2 25.848 129.896 25.944C129.608 26.024 129.36 26.208 129.152 26.496C128.96 26.768 128.824 27.184 128.744 27.744L127.568 36.192C127.488 36.768 127.504 37.2 127.616 37.488C127.728 37.76 127.92 37.944 128.192 38.04C128.464 38.12 128.784 38.16 129.152 38.16C129.696 38.16 130.168 37.992 130.568 37.656C130.968 37.32 131.208 36.832 131.288 36.192L131.72 33.288H130.064L130.208 32.184H133.664L132.704 39H131.336L131.408 37.704C131.344 37.8 131.28 37.896 131.216 37.992C131.152 38.072 131.088 38.144 131.024 38.208C130.768 38.512 130.432 38.768 130.016 38.976C129.616 39.168 129.096 39.264 128.456 39.264ZM134.056 39L139.024 24.816H141.544L142.456 39H140.416L140.2 35.88H137.104L136.024 39H134.056ZM137.296 34.92H140.296L139.936 26.832L137.296 34.92ZM144.208 39L146.224 24.816H148.072L146.248 37.704H150.016L149.8 39H144.208ZM151.356 39L153.372 24.816H155.22L153.396 37.704H157.164L156.948 39H151.356ZM158.505 39L160.521 24.816H166.761L166.545 26.136H162.249L161.577 30.888H165.081L164.865 32.328H161.385L160.641 37.704H164.937L164.745 39H158.505ZM166.684 39L168.7 24.816H173.356C174.204 24.816 174.844 25.016 175.276 25.416C175.708 25.8 175.868 26.392 175.756 27.192L175.444 29.448C175.332 30.264 175.004 30.904 174.46 31.368C173.932 31.832 173.244 32.08 172.396 32.112H172.42C172.948 32.144 173.308 32.32 173.5 32.64C173.692 32.96 173.844 33.456 173.956 34.128L174.676 39H172.66L172.108 34.248C172.076 33.96 172.02 33.688 171.94 33.432C171.876 33.176 171.772 32.976 171.628 32.832C171.484 32.672 171.284 32.592 171.028 32.592H169.516L168.604 39H166.684ZM169.684 31.296H171.556C172.148 31.296 172.612 31.152 172.948 30.864C173.3 30.576 173.524 30.08 173.62 29.376L173.884 27.504C173.964 26.928 173.876 26.512 173.62 26.256C173.38 26 173.06 25.872 172.66 25.872H170.452L169.684 31.296ZM178.089 39L178.953 32.832L177.441 24.816H179.337L180.225 30.216L180.249 30.816L180.465 30.216L183.009 24.816H184.761L180.801 32.928L179.937 39H178.089Z" fill="#F17900"/>
</svg>
