<svg width="287" height="55" viewBox="0 0 287 55" fill="none" xmlns="http://www.w3.org/2000/svg">
<path d="M21.9839 17.8211L20.7485 19.7162L16.3153 26.4583L5.99561 10.7146H0V40.9629H6.46799V22.3037L14.4258 34.4759H18.1685L24.0915 25.4743L25.3269 23.5792L21.9839 17.8211Z" fill="white"/>
<path d="M85.751 10.7517C96.4705 10.7517 101.558 17.0929 101.558 25.8758C101.558 34.6588 96.4705 41 85.751 41H74.4502V10.7517H85.751ZM85.751 16.4369H80.9182V35.2783H85.751C91.7467 35.2783 94.9807 32.0713 94.9807 25.8758C94.9807 19.6804 91.7467 16.4369 85.751 16.4369Z" fill="white"/>
<path d="M116.244 10.7517C119.696 10.7517 123.148 11.5899 125.655 13.0112V18.8422C123.221 17.0929 119.95 16.2182 116.716 16.2547C113.555 16.2911 111.992 17.1658 111.992 18.9515C111.992 23.9808 127.872 22.1221 127.872 32.4357C127.872 38.9591 122.639 41 116.571 41C112.537 41 108.831 40.0525 105.851 38.3761V32.4357C109.158 34.6223 112.792 35.497 116.135 35.497C119.478 35.497 121.549 34.8046 121.549 32.7273C121.549 27.2971 105.67 29.338 105.67 19.0244C105.633 13.3756 110.539 10.7517 116.244 10.7517Z" fill="white"/>
<path d="M153.961 10.7507V16.436H139.172V22.8865H152.653V28.5353H139.172V35.2774H154.215V40.9626H132.704V10.7143H153.961V10.7507Z" fill="white"/>
<path d="M159.449 40.9629V10.7146H165.518L179.544 30.4671C179.471 29.228 179.398 27.6974 179.398 26.3125V10.7146H185.866V40.9629H179.798L165.772 21.2104C165.845 22.4494 165.917 23.9801 165.917 25.3649V40.9629H159.449Z" fill="white"/>
<path d="M55.3733 16.2911C55.4096 15.7445 55.2643 15.1614 54.9736 14.6511L52.7207 10.7517H50.3951L53.2294 15.6716C53.3384 15.8538 53.3748 16.0725 53.3384 16.2911H55.3733Z" fill="#2C3144"/>
<path d="M70.1669 27.2243L63.0448 39.6151C62.5724 40.4533 61.664 41 60.6829 41H46.4388C45.4577 41 44.5492 40.4898 44.0769 39.6151L39.8254 32.2535L38.6626 30.2491L36.9548 27.2607C36.4824 26.4225 36.4824 25.3656 36.9548 24.5274L44.0769 12.1365C44.5492 11.2983 45.4577 10.7517 46.4388 10.7517H50.4358L53.2701 15.6716C53.3791 15.8538 53.4155 16.0725 53.3791 16.2911H48.0739L42.5507 25.8758L45.058 30.2126L46.0754 31.9984L48.0739 35.4605H59.0841L64.6073 25.8758L59.0841 16.2911H55.3777C55.414 15.7445 55.2687 15.1614 54.978 14.6511L52.7251 10.7517H60.6829C61.664 10.7517 62.5724 11.2619 63.0448 12.1365L70.1669 24.5274C70.6756 25.3292 70.6756 26.386 70.1669 27.2243Z" fill="white"/>
<path d="M54.9752 14.6504L52.7223 10.7509L47.3808 1.45775C46.8721 0.546657 45.891 0 44.8372 0H29.6483C28.5945 0 27.6498 0.546657 27.1047 1.45775L19.5466 14.6504C19.0379 15.5615 19.0379 16.6548 19.5466 17.5659L20.7821 19.7161L24.1251 25.5106L26.1963 29.0821V25.0369L25.3606 23.6156L22.0175 17.821L21.2908 16.5819C21.1455 16.2904 21.1455 15.9624 21.2908 15.6708L28.8852 2.47817C29.0306 2.18662 29.3576 2.04085 29.6847 2.04085H44.8735C45.2006 2.04085 45.4913 2.22307 45.673 2.47817L50.4331 10.7509L53.2674 15.6708C53.3764 15.853 53.4128 16.0717 53.3764 16.2904C53.3764 16.3997 53.3401 16.4726 53.2674 16.5819L45.673 29.7746C45.5276 29.9932 45.3096 30.1754 45.0552 30.2119L46.0727 31.9976C46.6177 31.7425 47.0901 31.3416 47.4171 30.795L55.0116 17.6023C55.2296 17.2015 55.3749 16.7641 55.4113 16.2904C55.4113 15.7073 55.2659 15.1606 54.9752 14.6504ZM32.628 30.2119V32.2163H39.8227L38.6599 30.2119H32.628Z" fill="#F17900"/>
<path d="M32.6306 10.7517V40.9636H26.1626V22.3408L25.3268 23.6163L21.9838 17.8218L26.6349 10.7517H32.6306Z" fill="white"/>
<path d="M178.184 54.396C177.344 54.396 176.576 54.276 175.88 54.036C175.208 53.796 174.704 53.316 174.368 52.596C174.032 51.852 173.96 50.736 174.152 49.248L175.88 37.188C176.048 35.892 176.408 34.908 176.96 34.236C177.536 33.54 178.256 33.072 179.12 32.832C180.008 32.568 180.992 32.436 182.072 32.436C183.152 32.436 184.088 32.568 184.88 32.832C185.672 33.096 186.26 33.564 186.644 34.236C187.028 34.908 187.124 35.892 186.932 37.188L186.536 39.996H183.836L184.232 37.116C184.352 36.276 184.316 35.652 184.124 35.244C183.956 34.812 183.668 34.536 183.26 34.416C182.876 34.272 182.408 34.2 181.856 34.2C181.304 34.2 180.8 34.272 180.344 34.416C179.912 34.536 179.54 34.812 179.228 35.244C178.94 35.652 178.736 36.276 178.616 37.116L176.852 49.788C176.732 50.652 176.756 51.3 176.924 51.732C177.092 52.14 177.38 52.416 177.788 52.56C178.196 52.68 178.676 52.74 179.228 52.74C180.044 52.74 180.752 52.488 181.352 51.984C181.952 51.48 182.312 50.748 182.432 49.788L183.08 45.432H180.596L180.812 43.776H185.996L184.556 54H182.504L182.612 52.056C182.516 52.2 182.42 52.344 182.324 52.488C182.228 52.608 182.132 52.716 182.036 52.812C181.652 53.268 181.148 53.652 180.524 53.964C179.924 54.252 179.144 54.396 178.184 54.396ZM186.584 54L194.036 32.724H197.816L199.184 54H196.124L195.8 49.32H191.156L189.536 54H186.584ZM191.444 47.88H195.944L195.404 35.748L191.444 47.88ZM201.812 54L204.836 32.724H207.608L204.872 52.056H210.524L210.2 54H201.812ZM212.534 54L215.558 32.724H218.33L215.594 52.056H221.246L220.922 54H212.534ZM223.257 54L226.281 32.724H235.641L235.317 34.704H228.873L227.865 41.832H233.121L232.797 43.992H227.577L226.461 52.056H232.905L232.617 54H223.257ZM235.526 54L238.55 32.724H245.534C246.806 32.724 247.766 33.024 248.414 33.624C249.062 34.2 249.302 35.088 249.134 36.288L248.666 39.672C248.498 40.896 248.006 41.856 247.19 42.552C246.398 43.248 245.366 43.62 244.094 43.668H244.13C244.922 43.716 245.462 43.98 245.75 44.46C246.038 44.94 246.266 45.684 246.434 46.692L247.514 54H244.49L243.662 46.872C243.614 46.44 243.53 46.032 243.41 45.648C243.314 45.264 243.158 44.964 242.942 44.748C242.726 44.508 242.426 44.388 242.042 44.388H239.774L238.406 54H235.526ZM240.026 42.444H242.834C243.722 42.444 244.418 42.228 244.922 41.796C245.45 41.364 245.786 40.62 245.93 39.564L246.326 36.756C246.446 35.892 246.314 35.268 245.93 34.884C245.57 34.5 245.09 34.308 244.49 34.308H241.178L240.026 42.444ZM252.634 54L253.93 44.748L251.662 32.724H254.506L255.838 40.824L255.874 41.724L256.198 40.824L260.014 32.724H262.642L256.702 44.892L255.406 54H252.634Z" fill="#F17900"/>
</svg>
