<svg width="268" height="55" viewBox="0 0 268 55" fill="none" xmlns="http://www.w3.org/2000/svg">
<path d="M22.5093 17.8211L21.2738 19.7162L16.8407 26.4583L6.521 10.7146H0.525391V40.9629H6.99338V22.3037L14.9512 34.4759H18.6939L24.6169 25.4743L25.8523 23.5793L22.5093 17.8211Z" fill="white"/>
<path d="M86.2764 10.7517C96.9958 10.7517 102.083 17.0929 102.083 25.8759C102.083 34.6588 96.9958 41 86.2764 41H74.9756V10.7517H86.2764ZM86.2764 16.4369H81.4436V35.2784H86.2764C92.272 35.2784 95.506 32.0713 95.506 25.8759C95.506 19.6804 92.272 16.4369 86.2764 16.4369Z" fill="white"/>
<path d="M116.769 10.7517C120.221 10.7517 123.673 11.5899 126.181 13.0112V18.8422C123.746 17.0929 120.476 16.2183 117.242 16.2547C114.08 16.2912 112.518 17.1658 112.518 18.9516C112.518 23.9808 128.397 22.1222 128.397 32.4358C128.397 38.9592 123.165 41 117.096 41C113.063 41 109.357 40.0525 106.377 38.3761V32.4358C109.684 34.6224 113.317 35.497 116.66 35.497C120.003 35.497 122.075 34.8046 122.075 32.7273C122.075 27.2972 106.195 29.338 106.195 19.0244C106.159 13.3757 111.064 10.7517 116.769 10.7517Z" fill="white"/>
<path d="M154.486 10.7508V16.436H139.697V22.8866H153.178V28.5354H139.697V35.2775H154.741V40.9627H133.229V10.7144H154.486V10.7508Z" fill="white"/>
<path d="M159.975 40.9629V10.7146H166.043L180.069 30.4671C179.996 29.228 179.924 27.6974 179.924 26.3125V10.7146H186.392V40.9629H180.323L166.297 21.2104C166.37 22.4495 166.443 23.9801 166.443 25.365V40.9629H159.975Z" fill="white"/>
<path d="M55.8986 16.2912C55.9349 15.7445 55.7896 15.1614 55.4989 14.6512L53.246 10.7517H50.9204L53.7547 15.6716C53.8637 15.8538 53.9001 16.0725 53.8637 16.2912H55.8986Z" fill="#2C3144"/>
<path d="M70.6923 27.2243L63.5703 39.6152C63.0979 40.4534 62.1895 41 61.2084 41H46.9642C45.9831 41 45.0747 40.4898 44.6023 39.6152L40.3509 32.2535L39.1881 30.2491L37.4803 27.2607C37.0079 26.4225 37.0079 25.3657 37.4803 24.5275L44.6023 12.1366C45.0747 11.2984 45.9831 10.7517 46.9642 10.7517H50.9613L53.7956 15.6716C53.9046 15.8538 53.9409 16.0725 53.9046 16.2912H48.5994L43.0762 25.8759L45.5834 30.2127L46.6009 31.9984L48.5994 35.4606H59.6095L65.1328 25.8759L59.6095 16.2912H55.9031C55.9395 15.7445 55.7941 15.1614 55.5034 14.6512L53.2505 10.7517H61.2084C62.1895 10.7517 63.0979 11.2619 63.5703 12.1366L70.6923 24.5275C71.201 25.3292 71.201 26.3861 70.6923 27.2243Z" fill="white"/>
<path d="M55.5006 14.6504L53.2477 10.7509L47.9061 1.45775C47.3974 0.546657 46.4163 0 45.3626 0H30.1737C29.1199 0 28.1751 0.546657 27.6301 1.45775L20.072 14.6504C19.5633 15.5615 19.5633 16.6548 20.072 17.5659L21.3074 19.7161L24.6504 25.5106L26.7216 29.0821V25.0369L25.8859 23.6156L22.5429 17.821L21.8161 16.5819C21.6708 16.2904 21.6708 15.9624 21.8161 15.6708L29.4106 2.47817C29.5559 2.18662 29.883 2.04085 30.21 2.04085H45.3989C45.7259 2.04085 46.0166 2.22307 46.1983 2.47817L50.9585 10.7509L53.7927 15.6708C53.9018 15.853 53.9381 16.0717 53.9018 16.2904C53.9018 16.3997 53.8654 16.4726 53.7927 16.5819L46.1983 29.7746C46.053 29.9932 45.8349 30.1754 45.5806 30.2119L46.598 31.9976C47.1431 31.7425 47.6154 31.3416 47.9425 30.795L55.5369 17.6023C55.7549 17.2015 55.9003 16.7641 55.9366 16.2904C55.9366 15.7073 55.7913 15.1606 55.5006 14.6504ZM33.1533 30.2119V32.2163H40.348L39.1853 30.2119H33.1533Z" fill="#F17900"/>
<path d="M33.156 10.7517V40.9636H26.688V22.3408L25.8523 23.6164L22.5093 17.8218L27.1604 10.7517H33.156Z" fill="white"/>
<path d="M178.709 54.396C177.869 54.396 177.101 54.276 176.405 54.036C175.733 53.796 175.229 53.316 174.893 52.596C174.557 51.852 174.485 50.736 174.677 49.248L176.405 37.188C176.573 35.892 176.933 34.908 177.485 34.236C178.061 33.54 178.781 33.072 179.645 32.832C180.533 32.568 181.517 32.436 182.597 32.436C183.677 32.436 184.613 32.568 185.405 32.832C186.197 33.096 186.785 33.564 187.169 34.236C187.553 34.908 187.649 35.892 187.457 37.188L187.061 39.996H184.361L184.757 37.116C184.877 36.276 184.841 35.652 184.649 35.244C184.481 34.812 184.193 34.536 183.785 34.416C183.401 34.272 182.933 34.2 182.381 34.2C181.829 34.2 181.325 34.272 180.869 34.416C180.437 34.536 180.065 34.812 179.753 35.244C179.465 35.652 179.261 36.276 179.141 37.116L177.377 49.788C177.257 50.652 177.281 51.3 177.449 51.732C177.617 52.14 177.905 52.416 178.313 52.56C178.721 52.68 179.201 52.74 179.753 52.74C180.569 52.74 181.277 52.488 181.877 51.984C182.477 51.48 182.837 50.748 182.957 49.788L183.605 45.432H181.121L181.337 43.776H186.521L185.081 54H183.029L183.137 52.056C183.041 52.2 182.945 52.344 182.849 52.488C182.753 52.608 182.657 52.716 182.561 52.812C182.177 53.268 181.673 53.652 181.049 53.964C180.449 54.252 179.669 54.396 178.709 54.396ZM187.11 54L194.562 32.724H198.342L199.71 54H196.65L196.326 49.32H191.682L190.062 54H187.11ZM191.97 47.88H196.47L195.93 35.748L191.97 47.88ZM202.337 54L205.361 32.724H208.133L205.397 52.056H211.049L210.725 54H202.337ZM213.06 54L216.084 32.724H218.856L216.12 52.056H221.772L221.448 54H213.06ZM223.782 54L226.806 32.724H236.166L235.842 34.704H229.398L228.39 41.832H233.646L233.322 43.992H228.102L226.986 52.056H233.43L233.142 54H223.782ZM236.052 54L239.076 32.724H246.06C247.332 32.724 248.292 33.024 248.94 33.624C249.588 34.2 249.828 35.088 249.66 36.288L249.192 39.672C249.024 40.896 248.532 41.856 247.716 42.552C246.924 43.248 245.892 43.62 244.62 43.668H244.656C245.448 43.716 245.988 43.98 246.276 44.46C246.564 44.94 246.792 45.684 246.96 46.692L248.04 54H245.016L244.188 46.872C244.14 46.44 244.056 46.032 243.936 45.648C243.84 45.264 243.684 44.964 243.468 44.748C243.252 44.508 242.952 44.388 242.568 44.388H240.3L238.932 54H236.052ZM240.552 42.444H243.36C244.248 42.444 244.944 42.228 245.448 41.796C245.976 41.364 246.312 40.62 246.456 39.564L246.852 36.756C246.972 35.892 246.84 35.268 246.456 34.884C246.096 34.5 245.616 34.308 245.016 34.308H241.704L240.552 42.444ZM253.159 54L254.455 44.748L252.187 32.724H255.031L256.363 40.824L256.399 41.724L256.723 40.824L260.539 32.724H263.167L257.227 44.892L255.931 54H253.159Z" fill="#F17900"/>
</svg>
