<svg width="247" height="51" viewBox="0 0 247 51" fill="none" xmlns="http://www.w3.org/2000/svg">
<path d="M16.622 14.5478L15.6879 16.0948L12.336 21.5986L4.53327 8.74656H0V33.4391H4.89043V18.2071L10.9073 28.1436H13.7372L18.2155 20.7953L19.1496 19.2483L16.622 14.5478Z" fill="white"/>
<path d="M64.836 8.77688C72.941 8.77688 76.7874 13.9534 76.7874 21.1231C76.7874 28.2929 72.941 33.4694 64.836 33.4694H56.2915V8.77688H64.836ZM64.836 13.4179H61.1819V28.7986H64.836C69.3693 28.7986 71.8145 26.1806 71.8145 21.1231C71.8145 16.0656 69.3693 13.4179 64.836 13.4179Z" fill="white"/>
<path d="M87.8917 8.77688C90.5017 8.77688 93.1118 9.46113 95.0075 10.6214V15.3814C93.1667 13.9534 90.6941 13.2394 88.2488 13.2691C85.8586 13.2989 84.6772 14.0129 84.6772 15.4706C84.6772 19.5761 96.6835 18.0589 96.6835 26.4781C96.6835 31.8034 92.7272 33.4694 88.1389 33.4694C85.0893 33.4694 82.2869 32.6959 80.034 31.3274V26.4781C82.5342 28.2631 85.2816 28.9771 87.8092 28.9771C90.3369 28.9771 91.9029 28.4119 91.9029 26.7161C91.9029 22.2834 79.8966 23.9494 79.8966 15.5301C79.8692 10.9189 83.5782 8.77688 87.8917 8.77688Z" fill="white"/>
<path d="M116.409 8.77611V13.4171H105.227V18.6829H115.42V23.2941H105.227V28.7979H116.602V33.4389H100.337V8.74636H116.409V8.77611Z" fill="white"/>
<path d="M120.559 33.4391V8.74656H125.147L135.752 24.8711C135.697 23.8596 135.643 22.6101 135.643 21.4796V8.74656H140.533V33.4391H135.945L125.34 17.3146C125.395 18.3261 125.45 19.5756 125.45 20.7061V33.4391H120.559Z" fill="white"/>
<path d="M41.8675 13.2989C41.895 12.8526 41.7851 12.3766 41.5653 11.9601L39.8619 8.77688H38.1035L40.2465 12.7931C40.3289 12.9419 40.3564 13.1204 40.3289 13.2989H41.8675Z" fill="#2C3144"/>
<path d="M53.053 22.2239L47.668 32.3389C47.3109 33.0231 46.624 33.4694 45.8822 33.4694H35.1123C34.3705 33.4694 33.6836 33.0529 33.3264 32.3389L30.1119 26.3294L29.2328 24.6931L27.9415 22.2536C27.5843 21.5694 27.5843 20.7066 27.9415 20.0224L33.3264 9.90738C33.6836 9.22313 34.3705 8.77688 35.1123 8.77688H38.1344L40.2774 12.7931C40.3599 12.9419 40.3873 13.1204 40.3599 13.2989H36.3486L32.1725 21.1231L34.0682 24.6634L34.8375 26.1211L36.3486 28.9474H44.6733L48.8494 21.1231L44.6733 13.2989H41.871C41.8984 12.8526 41.7885 12.3766 41.5687 11.9601L39.8653 8.77688H45.8822C46.624 8.77688 47.3109 9.19338 47.668 9.90738L53.053 20.0224C53.4377 20.6769 53.4377 21.5396 53.053 22.2239Z" fill="white"/>
<path d="M41.5667 11.9595L39.8633 8.77626L35.8246 1.19C35.4399 0.44625 34.6981 0 33.9014 0H22.4171C21.6203 0 20.906 0.44625 20.4939 1.19L14.7792 11.9595C14.3946 12.7033 14.3946 13.5958 14.7792 14.3395L15.7133 16.0948L18.241 20.825L19.807 23.7405V20.4383L19.1751 19.278L16.6475 14.5478L16.098 13.5363C15.9881 13.2983 15.9881 13.0305 16.098 12.7925L21.8401 2.023C21.95 1.785 22.1973 1.666 22.4445 1.666H33.9288C34.1761 1.666 34.3959 1.81475 34.5333 2.023L38.1324 8.77626L40.2754 12.7925C40.3578 12.9413 40.3853 13.1198 40.3578 13.2983C40.3578 13.3875 40.3304 13.447 40.2754 13.5363L34.5333 24.3058C34.4234 24.4843 34.2585 24.633 34.0662 24.6628L34.8355 26.1205C35.2476 25.9123 35.6048 25.585 35.852 25.1388L41.5942 14.3693C41.759 14.042 41.8689 13.685 41.8964 13.2983C41.8964 12.8223 41.7865 12.376 41.5667 11.9595ZM24.67 24.6628V26.299H30.1099L29.2307 24.6628H24.67Z" fill="#F17900"/>
<path d="M24.6721 8.77688V33.4396H19.7816V18.2374L19.1497 19.2786L16.6221 14.5484L20.1388 8.77688H24.6721Z" fill="white"/>
<path d="M136.184 50.396C135.344 50.396 134.576 50.276 133.88 50.036C133.208 49.796 132.704 49.316 132.368 48.596C132.032 47.852 131.96 46.736 132.152 45.248L133.88 33.188C134.048 31.892 134.408 30.908 134.96 30.236C135.536 29.54 136.256 29.072 137.12 28.832C138.008 28.568 138.992 28.436 140.072 28.436C141.152 28.436 142.088 28.568 142.88 28.832C143.672 29.096 144.26 29.564 144.644 30.236C145.028 30.908 145.124 31.892 144.932 33.188L144.536 35.996H141.836L142.232 33.116C142.352 32.276 142.316 31.652 142.124 31.244C141.956 30.812 141.668 30.536 141.26 30.416C140.876 30.272 140.408 30.2 139.856 30.2C139.304 30.2 138.8 30.272 138.344 30.416C137.912 30.536 137.54 30.812 137.228 31.244C136.94 31.652 136.736 32.276 136.616 33.116L134.852 45.788C134.732 46.652 134.756 47.3 134.924 47.732C135.092 48.14 135.38 48.416 135.788 48.56C136.196 48.68 136.676 48.74 137.228 48.74C138.044 48.74 138.752 48.488 139.352 47.984C139.952 47.48 140.312 46.748 140.432 45.788L141.08 41.432H138.596L138.812 39.776H143.996L142.556 50H140.504L140.612 48.056C140.516 48.2 140.42 48.344 140.324 48.488C140.228 48.608 140.132 48.716 140.036 48.812C139.652 49.268 139.148 49.652 138.524 49.964C137.924 50.252 137.144 50.396 136.184 50.396ZM144.584 50L152.036 28.724H155.816L157.184 50H154.124L153.8 45.32H149.156L147.536 50H144.584ZM149.444 43.88H153.944L153.404 31.748L149.444 43.88ZM159.812 50L162.836 28.724H165.608L162.872 48.056H168.524L168.2 50H159.812ZM170.534 50L173.558 28.724H176.33L173.594 48.056H179.246L178.922 50H170.534ZM181.257 50L184.281 28.724H193.641L193.317 30.704H186.873L185.865 37.832H191.121L190.797 39.992H185.577L184.461 48.056H190.905L190.617 50H181.257ZM193.526 50L196.55 28.724H203.534C204.806 28.724 205.766 29.024 206.414 29.624C207.062 30.2 207.302 31.088 207.134 32.288L206.666 35.672C206.498 36.896 206.006 37.856 205.19 38.552C204.398 39.248 203.366 39.62 202.094 39.668H202.13C202.922 39.716 203.462 39.98 203.75 40.46C204.038 40.94 204.266 41.684 204.434 42.692L205.514 50H202.49L201.662 42.872C201.614 42.44 201.53 42.032 201.41 41.648C201.314 41.264 201.158 40.964 200.942 40.748C200.726 40.508 200.426 40.388 200.042 40.388H197.774L196.406 50H193.526ZM198.026 38.444H200.834C201.722 38.444 202.418 38.228 202.922 37.796C203.45 37.364 203.786 36.62 203.93 35.564L204.326 32.756C204.446 31.892 204.314 31.268 203.93 30.884C203.57 30.5 203.09 30.308 202.49 30.308H199.178L198.026 38.444ZM210.634 50L211.93 40.748L209.662 28.724H212.506L213.838 36.824L213.874 37.724L214.198 36.824L218.014 28.724H220.642L214.702 40.892L213.406 50H210.634Z" fill="#F17900"/>
</svg>
