<svg width="14" height="13" viewBox="0 0 14 13" fill="none" xmlns="http://www.w3.org/2000/svg">
<path fill-rule="evenodd" clip-rule="evenodd" d="M7.13212 0.226562C3.54118 0.226562 0.652222 3.11552 0.652222 6.70646C0.652222 9.56841 2.51519 11.9984 5.08015 12.8624C5.40415 12.9164 5.51214 12.7274 5.51214 12.5384C5.51214 12.3764 5.51214 11.9714 5.51214 11.4314C3.70317 11.8364 3.32518 10.5674 3.32518 10.5674C3.02818 9.81141 2.59619 9.62241 2.59619 9.62241C2.0022 9.21742 2.65019 9.21742 2.65019 9.21742C3.29818 9.27142 3.64917 9.89241 3.64917 9.89241C4.21616 10.8914 5.16115 10.5944 5.53914 10.4324C5.59314 10.0004 5.75514 9.73041 5.94414 9.56841C4.51316 9.40642 3.00118 8.83942 3.00118 6.35546C3.00118 5.65347 3.24418 5.05948 3.67617 4.62749C3.62217 4.46549 3.37918 3.8175 3.73017 2.89952C3.73017 2.89952 4.27016 2.73752 5.51214 3.57451C6.02514 3.43951 6.59213 3.35851 7.13212 3.35851C7.67211 3.35851 8.2391 3.43951 8.75209 3.57451C9.99407 2.73752 10.5341 2.89952 10.5341 2.89952C10.8851 3.79051 10.6691 4.43849 10.5881 4.62749C10.9931 5.08648 11.2631 5.65347 11.2631 6.35546C11.2631 8.83942 9.75107 9.37942 8.2931 9.54141C8.53609 9.73041 8.72509 10.1354 8.72509 10.7294C8.72509 11.5934 8.72509 12.2954 8.72509 12.5114C8.72509 12.6734 8.83309 12.8894 9.18408 12.8354C11.749 11.9984 13.612 9.56841 13.612 6.70646C13.612 3.11552 10.7231 0.226562 7.13212 0.226562Z" fill="black"/>
</svg>
