<svg width="15" height="14" viewBox="0 0 15 14" fill="none" xmlns="http://www.w3.org/2000/svg">
<path d="M7.52602 1.44721C9.33473 1.44721 9.54893 1.45398 10.2634 1.48656C10.693 1.49182 11.1186 1.5707 11.5215 1.71979C11.8137 1.83248 12.0791 2.00511 12.3005 2.22656C12.522 2.44802 12.6946 2.71339 12.8073 3.00559C12.9564 3.40853 13.0353 3.83406 13.0405 4.26366C13.0728 4.97817 13.0799 5.19237 13.0799 7.00108C13.0799 8.80979 13.0731 9.02398 13.0405 9.7385C13.0353 10.1681 12.9564 10.5936 12.8073 10.9966C12.6946 11.2888 12.522 11.5541 12.3005 11.7756C12.0791 11.997 11.8137 12.1697 11.5215 12.2824C11.1186 12.4315 10.693 12.5103 10.2634 12.5156C9.54925 12.5479 9.33506 12.5549 7.52602 12.5549C5.71699 12.5549 5.5028 12.5482 4.78861 12.5156C4.359 12.5103 3.93348 12.4315 3.53054 12.2824C3.23833 12.1697 2.97296 11.997 2.75151 11.7756C2.53005 11.5541 2.35743 11.2888 2.24473 10.9966C2.09565 10.5936 2.01677 10.1681 2.01151 9.7385C1.97925 9.02398 1.97215 8.80979 1.97215 7.00108C1.97215 5.19237 1.97893 4.97817 2.01151 4.26366C2.01677 3.83406 2.09565 3.40853 2.24473 3.00559C2.35743 2.71339 2.53005 2.44802 2.75151 2.22656C2.97296 2.00511 3.23833 1.83248 3.53054 1.71979C3.93348 1.5707 4.359 1.49182 4.78861 1.48656C5.50312 1.4543 5.71732 1.44721 7.52602 1.44721ZM7.52602 0.226562C5.68732 0.226562 5.4557 0.234304 4.73312 0.267208C4.17088 0.278391 3.6146 0.384847 3.08796 0.582046C2.63618 0.752261 2.22699 1.019 1.88893 1.36366C1.54396 1.70184 1.27699 2.11127 1.10667 2.56334C0.90947 3.08998 0.803014 3.64625 0.791831 4.2085C0.759573 4.93043 0.751831 5.16205 0.751831 7.00076C0.751831 8.83946 0.759573 9.07108 0.792476 9.79366C0.803659 10.3559 0.910115 10.9122 1.10732 11.4388C1.27745 11.8908 1.54419 12.3002 1.88893 12.6385C2.22718 12.9832 2.6366 13.25 3.08861 13.4201C3.61525 13.6173 4.17152 13.7238 4.73377 13.7349C5.45635 13.7672 5.68699 13.7756 7.52667 13.7756C9.36635 13.7756 9.59699 13.7679 10.3196 13.7349C10.8818 13.7238 11.4381 13.6173 11.9647 13.4201C12.4146 13.2457 12.8231 12.9794 13.1642 12.6381C13.5052 12.2968 13.7713 11.8882 13.9454 11.4382C14.1426 10.9115 14.249 10.3553 14.2602 9.79301C14.2925 9.07108 14.3002 8.83946 14.3002 7.00076C14.3002 5.16205 14.2925 4.93043 14.2596 4.20785C14.2484 3.64561 14.1419 3.08934 13.9447 2.56269C13.7746 2.11068 13.5079 1.70126 13.1631 1.36301C12.8249 1.01828 12.4155 0.751533 11.9634 0.581401C11.4368 0.384201 10.8805 0.277746 10.3183 0.266563C9.59635 0.234304 9.36473 0.226562 7.52602 0.226562Z" fill="black"/>
<path d="M7.52742 3.52344C6.83939 3.52344 6.16682 3.72746 5.59475 4.10971C5.02268 4.49195 4.5768 5.03525 4.31351 5.6709C4.05021 6.30655 3.98132 7.00601 4.11555 7.68081C4.24978 8.35561 4.58109 8.97546 5.0676 9.46197C5.5541 9.94847 6.17395 10.2798 6.84875 10.414C7.52356 10.5482 8.22301 10.4794 8.85866 10.2161C9.49431 9.95276 10.0376 9.50689 10.4199 8.93481C10.8021 8.36274 11.0061 7.69017 11.0061 7.00215C11.0061 6.07954 10.6396 5.19471 9.98724 4.54233C9.33485 3.88994 8.45003 3.52344 7.52742 3.52344ZM7.52742 9.26021C7.08081 9.26021 6.64424 9.12778 6.2729 8.87966C5.90157 8.63154 5.61215 8.27888 5.44124 7.86627C5.27033 7.45366 5.22561 6.99964 5.31274 6.56162C5.39987 6.1236 5.61493 5.72125 5.93072 5.40545C6.24652 5.08966 6.64887 4.8746 7.08689 4.78747C7.52491 4.70034 7.97893 4.74506 8.39154 4.91597C8.80415 5.08687 9.15681 5.3763 9.40493 5.74763C9.65305 6.11897 9.78548 6.55554 9.78548 7.00215C9.78548 7.60102 9.54758 8.17537 9.12411 8.59884C8.70064 9.02231 8.12629 9.26021 7.52742 9.26021Z" fill="black"/>
<path d="M11.1429 4.19807C11.5918 4.19807 11.9558 3.83412 11.9558 3.38517C11.9558 2.93621 11.5918 2.57227 11.1429 2.57227C10.6939 2.57227 10.33 2.93621 10.33 3.38517C10.33 3.83412 10.6939 4.19807 11.1429 4.19807Z" fill="black"/>
</svg>
