<svg width="12" height="10" viewBox="0 0 12 10" fill="none" xmlns="http://www.w3.org/2000/svg">
<path d="M11.7324 1.9831C11.3134 2.16933 10.8711 2.28573 10.4055 2.35557C10.8711 2.07622 11.2435 1.63392 11.4065 1.0985C10.9642 1.35457 10.4753 1.5408 9.93991 1.6572C9.52089 1.2149 8.91564 0.935547 8.26382 0.935547C7.00676 0.935547 5.98248 1.95982 5.98248 3.21689C5.98248 3.40312 6.00576 3.56608 6.05232 3.72903C4.16672 3.63591 2.46735 2.72803 1.32668 1.33129C1.14045 1.68048 1.02405 2.05294 1.02405 2.47196C1.02405 3.26345 1.4198 3.96182 2.04833 4.38084C1.67586 4.35756 1.32668 4.26445 1.00077 4.10149V4.12477C1.00077 5.24216 1.79226 6.17333 2.83981 6.38284C2.65358 6.42939 2.44407 6.45267 2.23456 6.45267C2.09489 6.45267 1.93193 6.42939 1.79226 6.40612C2.09489 7.314 2.93293 7.98909 3.93393 7.98909C3.14244 8.59434 2.16472 8.96681 1.09389 8.96681C0.907657 8.96681 0.721425 8.96681 0.558472 8.94353C1.58275 9.59534 2.76998 9.96781 4.0736 9.96781C8.2871 9.96781 10.5917 6.47595 10.5917 3.44968C10.5917 3.35656 10.5917 3.24017 10.5917 3.14705C11.034 2.84443 11.4298 2.44868 11.7324 1.9831Z" fill="black"/>
</svg>
